<svg width="50" height="50" viewBox="0 0 50 50" fill="none" xmlns="http://www.w3.org/2000/svg">
<path d="M3.75775 3.28476C5.25841 3.23187 6.75884 3.19159 8.26024 3.16698C8.95763 3.15516 9.65438 3.13916 10.3514 3.11327C11.0254 3.08839 11.6988 3.07494 12.3732 3.06908C12.6291 3.06491 12.8851 3.05677 13.1407 3.04441C15.0832 2.95436 15.0832 2.95436 15.7815 3.50423C16.3012 4.04076 16.7096 4.63955 17.0971 5.27589C17.3498 5.68614 17.6333 6.06927 17.9181 6.45783C18.0194 6.60086 18.1204 6.74406 18.221 6.88751C18.5585 7.36406 18.9085 7.83073 19.26 8.29694C20.0453 9.33894 20.8194 10.389 21.5923 11.4402C21.9616 11.9424 22.3316 12.4442 22.7014 12.946C22.8488 13.146 22.9961 13.346 23.1434 13.5459C23.2164 13.6449 23.2893 13.7439 23.3644 13.8459C24.0275 14.7457 24.0275 14.7457 24.2485 15.0456C24.3959 15.2457 24.5433 15.4457 24.6908 15.6458C25.0579 16.1439 25.4248 16.6421 25.7911 17.1408C26.5454 18.1669 27.3036 19.1898 28.0688 20.2078C28.7115 21.063 29.3514 21.9203 29.9868 22.781C30.0596 22.8793 30.1324 22.9776 30.2074 23.0789C30.3412 23.2605 30.4743 23.4427 30.6066 23.6254C30.7194 23.781 30.8337 23.9355 30.9501 24.0884C31.2872 24.5492 31.2872 24.5492 31.2956 24.8751C31.0907 25.2736 30.8259 25.6226 30.5552 25.9777C30.4275 26.1483 30.3001 26.319 30.1728 26.4898C30.0737 26.6226 30.0737 26.6226 29.9726 26.758C29.6518 27.1927 29.3418 27.6349 29.0318 28.0773C27.9485 29.6187 26.842 31.143 25.7259 32.6607C25.298 33.2434 24.8765 33.8303 24.4572 34.4192C23.8206 35.3131 23.1769 36.2018 22.5339 37.0911C22.1896 37.5672 21.8456 38.0436 21.5017 38.52C21.3657 38.7083 21.2297 38.8966 21.0937 39.0849C20.8118 39.4752 20.5299 39.8656 20.2481 40.256C20.1055 40.4535 19.963 40.651 19.8204 40.8485C19.7511 40.9444 19.6819 41.0404 19.6105 41.1393C19.2504 41.638 18.889 42.1357 18.5259 42.6323C18.1834 43.1024 17.8459 43.5758 17.5119 44.0519C17.3836 44.2336 17.2543 44.4146 17.1236 44.5947C16.7787 45.0728 16.4596 45.5502 16.1731 46.0657C15.306 47.552 15.306 47.552 14.5794 47.865C13.7654 48.0552 12.9427 48.0007 12.1142 47.9612C11.8504 47.957 11.5866 47.9538 11.3227 47.9515C10.6331 47.9429 9.94467 47.9206 9.25552 47.8953C8.55041 47.8719 7.84512 47.8617 7.13974 47.8502C5.75934 47.826 4.37976 47.7873 3 47.7392C3.54926 46.7703 3.54926 46.7703 3.88354 46.3239C3.98808 46.1833 3.98808 46.1833 4.09472 46.04C4.16846 45.9417 4.24219 45.8435 4.31816 45.7423C4.47711 45.5286 4.63595 45.3148 4.79472 45.1009C4.87477 44.9933 4.95483 44.8856 5.03731 44.7746C5.3961 44.2896 5.74944 43.8007 6.10203 43.3112C6.16926 43.2179 6.2365 43.1246 6.30577 43.0285C6.50896 42.7466 6.71201 42.4645 6.91503 42.1824C7.8244 40.9188 8.73899 39.6595 9.66402 38.4073C10.4397 37.3562 11.2036 36.2967 11.9667 35.2364C12.876 33.9728 13.7906 32.7135 14.7157 31.4613C15.5669 30.3078 16.4043 29.1442 17.2413 27.9804C17.3916 27.7714 17.542 27.5625 17.6924 27.3536C17.8336 27.1576 17.9746 26.9615 18.1155 26.7653C18.1795 26.6765 18.2434 26.5877 18.3093 26.4962C18.3691 26.4127 18.4289 26.3293 18.4905 26.2433C18.6601 26.0172 18.6601 26.0172 18.9674 25.6763C19.1898 25.4042 19.1898 25.4042 19.1791 25.0951C18.9673 24.5797 18.6463 24.164 18.3128 23.7202C18.1623 23.516 18.0119 23.3118 17.8614 23.1075C17.7842 23.0035 17.707 22.8994 17.6274 22.7922C17.2705 22.3098 16.9194 21.8232 16.5684 21.3365C16.5005 21.2425 16.4326 21.1486 16.3626 21.0518C15.8396 20.3275 15.3239 19.5983 14.8101 18.8675C14.3569 18.2238 13.8971 17.5851 13.4348 16.9479C12.7768 16.0405 12.1321 15.1244 11.4912 14.2049C10.9317 13.4036 10.3624 12.6099 9.78837 11.819C9.33285 11.1908 8.884 10.5582 8.43841 9.92294C7.89901 9.1546 7.34753 8.39615 6.78873 7.64181C6.21024 6.86037 5.63763 6.07534 5.07591 5.28174C4.98568 5.15476 4.98568 5.15476 4.89363 5.02521C4.60133 4.61025 4.32066 4.19088 4.05279 3.75968C3.96936 3.62557 3.96936 3.62557 3.88424 3.48876C3.8425 3.42144 3.80075 3.35412 3.75775 3.28476Z" fill="#4552A3"/>
<path d="M33.1837 27.4064C33.6456 27.8463 34.0167 28.2936 34.3834 28.8193C34.4944 28.977 34.6054 29.1347 34.7164 29.2924C34.7749 29.3757 34.8334 29.459 34.8937 29.5449C35.2172 30.0029 35.5464 30.4568 35.8752 30.911C36.0155 31.105 36.1558 31.299 36.2961 31.4931C36.3662 31.59 36.4363 31.687 36.5085 31.7868C36.9209 32.3573 37.3329 32.928 37.745 33.4987C38.0917 33.9787 38.4384 34.4587 38.7854 34.9385C39.4549 35.8645 40.1229 36.7915 40.7862 37.722C41.4191 38.6091 42.0582 39.4917 42.6968 40.3746C43.041 40.8508 43.385 41.3272 43.729 41.8036C43.8658 41.993 44.0026 42.1824 44.1394 42.3719C44.4131 42.7507 44.6867 43.1296 44.9603 43.5085C45.0282 43.6024 45.096 43.6964 45.1659 43.7931C45.3015 43.9809 45.437 44.1687 45.5724 44.3565C45.933 44.8566 46.2953 45.3555 46.6598 45.8528C46.736 45.9571 46.8122 46.0615 46.8907 46.169C47.0377 46.3703 47.1852 46.5713 47.3332 46.7718C47.3988 46.8619 47.4644 46.9519 47.532 47.0446C47.5904 47.1241 47.6487 47.2035 47.7088 47.2854C47.8334 47.4867 47.8334 47.4867 47.8334 47.7392C46.3075 47.7803 44.7817 47.8117 43.2554 47.8309C42.5465 47.8401 41.838 47.8525 41.1293 47.8726C40.4447 47.8919 39.7605 47.9024 39.0756 47.907C38.8151 47.9103 38.5545 47.9166 38.2941 47.9262C36.3067 47.9963 36.3067 47.9963 35.7298 47.566C35.2774 47.0923 34.9907 46.553 34.6992 45.9712C34.578 45.7891 34.4545 45.6084 34.3252 45.432C34.2235 45.2829 34.1218 45.1338 34.0203 44.9845C33.5371 44.2776 33.0473 43.5757 32.5522 42.877C31.8803 41.9285 31.2202 40.9722 30.5633 40.0133C29.748 38.8244 28.9214 37.6434 28.0936 36.4632C28.0205 36.3589 27.9474 36.2546 27.872 36.1471C27.8065 36.0537 27.741 35.9603 27.6735 35.8641C27.2471 35.2507 27.2471 35.2507 27.2618 35.0055C27.4202 34.6194 27.6529 34.3331 27.911 34.0051C27.9665 33.9342 28.0221 33.8633 28.0793 33.7902C28.5986 33.1302 29.1297 32.4795 29.6609 31.829C30.2815 31.0685 30.8889 30.2984 31.493 29.5249C31.8087 29.1209 32.1252 28.7175 32.4417 28.3141C32.5016 28.2376 32.5614 28.1612 32.6231 28.0824C33.0431 27.547 33.0431 27.547 33.1837 27.4064Z" fill="#020303"/>
<path d="M36.4773 3.20619C36.6304 3.2096 36.6304 3.2096 36.7867 3.21307C36.8952 3.21298 37.0036 3.21289 37.1154 3.21279C37.4735 3.21323 37.8315 3.21814 38.1896 3.22309C38.438 3.22427 38.6865 3.22517 38.9349 3.2258C39.5886 3.22821 40.2421 3.23441 40.8957 3.2414C41.5627 3.24786 42.2298 3.25074 42.8969 3.25393C44.2056 3.2607 45.5142 3.27147 46.8228 3.28476C46.2712 4.25722 46.2712 4.25722 45.9812 4.63499C45.9209 4.71418 45.8607 4.79337 45.7986 4.87496C45.7355 4.9571 45.6723 5.03924 45.6072 5.12387C45.4712 5.303 45.3354 5.48224 45.1997 5.6616C45.1325 5.75052 45.0652 5.83945 44.9959 5.93108C44.3694 6.76647 43.7733 7.6245 43.1727 8.47848C42.5122 9.41715 41.8472 10.3515 41.1663 11.2754C40.5051 12.1729 39.8539 13.0776 39.202 13.9818C38.8589 14.4577 38.5153 14.9332 38.1718 15.4087C38.035 15.5981 37.8982 15.7876 37.7614 15.977C37.4878 16.3559 37.2141 16.7348 36.9405 17.1136C36.8727 17.2075 36.8049 17.3014 36.735 17.3981C36.599 17.5865 36.4629 17.7749 36.3268 17.9633C35.9734 18.4524 35.6203 18.9417 35.2676 19.4313C35.1585 19.5827 35.1585 19.5827 35.0471 19.7371C34.9094 19.9282 34.7717 20.1192 34.6342 20.3104C34.1996 20.913 33.7574 21.5093 33.3096 22.1021C32.8583 21.6613 32.4369 21.2041 32.0309 20.7208C31.9711 20.6498 31.9113 20.5789 31.8496 20.5057C31.2413 19.7793 30.657 19.0347 30.0756 18.2866C29.8357 17.9786 29.5943 17.6718 29.3528 17.3651C29.2347 17.215 29.1169 17.0647 28.9993 16.9142C28.7444 16.5879 28.4875 16.2651 28.2225 15.9469C28.1404 15.8475 28.0584 15.748 27.9738 15.6455C27.9028 15.5618 27.8319 15.4781 27.7587 15.3919C27.6265 15.1561 27.6265 15.1561 27.6626 14.9183C27.7594 14.6316 27.8806 14.427 28.0532 14.1789C28.1481 14.0414 28.1481 14.0414 28.2449 13.9011C28.3143 13.8021 28.3838 13.7032 28.4553 13.6012C28.5279 13.4964 28.6005 13.3916 28.6754 13.2837C28.8324 13.0573 28.9898 12.8312 29.1476 12.6053C29.396 12.2494 29.6436 11.8928 29.8909 11.5361C30.7613 10.2816 31.6359 9.02988 32.5126 7.77969C32.9182 7.20084 33.3224 6.62095 33.725 6.03998C33.8162 5.90852 33.9073 5.77706 34.0013 5.64162C34.1781 5.38654 34.3547 5.13133 34.5311 4.87598C34.6517 4.70199 34.6517 4.70199 34.7748 4.52448C34.8809 4.37102 34.8809 4.37102 34.9892 4.21446C35.0601 4.11604 35.131 4.01762 35.204 3.91621C35.2695 3.80735 35.3351 3.69849 35.4026 3.58633C35.7626 3.23212 35.9816 3.21076 36.4773 3.20619Z" fill="#020303"/>
</svg>
